<svg width="28" height="28" viewBox="0 0 28 28" fill="none" xmlns="http://www.w3.org/2000/svg">
                            <path fill-rule="evenodd" clip-rule="evenodd"
                                d="M1.75 19.2451C2.0981 19.2451 2.43194 19.3834 2.67808 19.6295C2.92422 19.8757 3.0625 20.2095 3.0625 20.5576V24.5004C3.0625 24.7419 3.2585 24.9379 3.5 24.9379H24.5C24.616 24.9379 24.7273 24.8918 24.8094 24.8097C24.8914 24.7277 24.9375 24.6164 24.9375 24.5004V20.5576C24.9375 20.2095 25.0758 19.8757 25.3219 19.6295C25.5681 19.3834 25.9019 19.2451 26.25 19.2451C26.5981 19.2451 26.9319 19.3834 27.1781 19.6295C27.4242 19.8757 27.5625 20.2095 27.5625 20.5576V24.5004C27.5625 25.3126 27.2398 26.0916 26.6655 26.6659C26.0912 27.2402 25.3122 27.5629 24.5 27.5629H3.5C2.68777 27.5629 1.90882 27.2402 1.33449 26.6659C0.760155 26.0916 0.4375 25.3126 0.4375 24.5004V20.5576C0.4375 20.2095 0.575781 19.8757 0.821922 19.6295C1.06806 19.3834 1.4019 19.2451 1.75 19.2451Z"
                                fill="#EB09FF" />
                            <path fill-rule="evenodd" clip-rule="evenodd"
                                d="M14.3535 2.76465C14.7016 2.76465 15.0355 2.90293 15.2816 3.14907C15.5277 3.39521 15.666 3.72905 15.666 4.07715V18.2276C15.666 18.5757 15.5277 18.9096 15.2816 19.1557C15.0355 19.4019 14.7016 19.5401 14.3535 19.5401C14.0054 19.5401 13.6716 19.4019 13.4254 19.1557C13.1793 18.9096 13.041 18.5757 13.041 18.2276V4.0789C13.041 3.7308 13.1793 3.39696 13.4254 3.15082C13.6716 2.90468 14.0054 2.76465 14.3535 2.76465Z"
                                fill="#EB09FF" />
                            <path fill-rule="evenodd" clip-rule="evenodd"
                                d="M13.4362 0.811952C13.6814 0.572517 14.0105 0.438477 14.3532 0.438477C14.696 0.438477 15.0251 0.572517 15.2702 0.811952L21.1222 6.52745C21.3661 6.77178 21.5039 7.10234 21.5057 7.44753C21.5076 7.79272 21.3734 8.12474 21.1322 8.37169C20.891 8.61864 20.5622 8.76063 20.2171 8.7669C19.872 8.77317 19.5383 8.64322 19.2882 8.4052L14.3532 3.5857L9.41825 8.4052C9.2955 8.5282 9.14954 8.62559 8.98885 8.69174C8.82816 8.75788 8.65594 8.79146 8.48217 8.79052C8.3084 8.78958 8.13655 8.75415 7.97658 8.68627C7.81662 8.61839 7.67172 8.51943 7.55031 8.39511C7.42889 8.2708 7.33336 8.12361 7.26928 7.96209C7.20519 7.80057 7.17382 7.62793 7.17697 7.45419C7.18013 7.28045 7.21776 7.10906 7.28767 6.94998C7.35759 6.79089 7.45839 6.64727 7.58425 6.52745L13.4362 0.811952Z"
                                fill="#EB09FF" />
                        </svg>