<svg width="53" height="42" viewBox="0 0 53 42" fill="none" xmlns="http://www.w3.org/2000/svg">
<path fill-rule="evenodd" clip-rule="evenodd" d="M40.8019 4.32114C40.68 4.19891 40.5351 4.10194 40.3757 4.03577C40.2162 3.96961 40.0453 3.93555 39.8727 3.93555C39.7 3.93555 39.5291 3.96961 39.3696 4.03577C39.2102 4.10194 39.0653 4.19891 38.9434 4.32114L23.1934 20.0711C23.0712 20.1931 22.9742 20.3379 22.908 20.4974C22.8419 20.6568 22.8078 20.8278 22.8078 21.0004C22.8078 21.173 22.8419 21.344 22.908 21.5034C22.9742 21.6629 23.0712 21.8077 23.1934 21.9296L38.9434 37.6796C39.1899 37.9261 39.5241 38.0645 39.8727 38.0645C40.2212 38.0645 40.5555 37.9261 40.8019 37.6796C41.0484 37.4332 41.1868 37.0989 41.1868 36.7504C41.1868 36.4019 41.0484 36.0676 40.8019 35.8211L25.9785 21.0004L40.8019 6.17964C40.9241 6.05772 41.0211 5.91289 41.0873 5.75343C41.1534 5.59398 41.1875 5.42303 41.1875 5.25039C41.1875 5.07775 41.1534 4.90681 41.0873 4.74736C41.0211 4.5879 40.9241 4.44306 40.8019 4.32114Z" fill="#6D00B0"/>
<path fill-rule="evenodd" clip-rule="evenodd" d="M24.8019 4.32114C24.68 4.19891 24.5351 4.10194 24.3757 4.03577C24.2162 3.96961 24.0453 3.93555 23.8727 3.93555C23.7 3.93555 23.5291 3.96961 23.3696 4.03577C23.2102 4.10194 23.0653 4.19891 22.9434 4.32114L7.1934 20.0711C7.07118 20.1931 6.9742 20.3379 6.90803 20.4974C6.84187 20.6568 6.80781 20.8278 6.80781 21.0004C6.80781 21.173 6.84187 21.344 6.90803 21.5034C6.9742 21.6629 7.07118 21.8077 7.1934 21.9296L22.9434 37.6796C23.1899 37.9261 23.5241 38.0645 23.8727 38.0645C24.2212 38.0645 24.5555 37.9261 24.8019 37.6796C25.0484 37.4332 25.1868 37.0989 25.1868 36.7504C25.1868 36.4019 25.0484 36.0676 24.8019 35.8211L9.97853 21.0004L24.8019 6.17964C24.9241 6.05772 25.0211 5.91289 25.0873 5.75343C25.1534 5.59398 25.1875 5.42303 25.1875 5.25039C25.1875 5.07775 25.1534 4.90681 25.0873 4.74736C25.0211 4.5879 24.9241 4.44306 24.8019 4.32114Z" fill="#8102CF" fill-opacity="0.6"/>
</svg>
