<svg width="58" height="42" viewBox="0 0 58 42" fill="none" xmlns="http://www.w3.org/2000/svg">
<path fill-rule="evenodd" clip-rule="evenodd" d="M12.1961 4.32114C12.3181 4.19891 12.4629 4.10194 12.6224 4.03577C12.7818 3.96961 12.9528 3.93555 13.1254 3.93555C13.298 3.93555 13.469 3.96961 13.6284 4.03577C13.7879 4.10194 13.9327 4.19891 14.0546 4.32114L29.8046 20.0711C29.9269 20.1931 30.0238 20.3379 30.09 20.4974C30.1562 20.6568 30.1902 20.8278 30.1902 21.0004C30.1902 21.173 30.1562 21.344 30.09 21.5034C30.0238 21.6629 29.9269 21.8077 29.8046 21.9296L14.0546 37.6796C13.8082 37.9261 13.4739 38.0645 13.1254 38.0645C12.7769 38.0645 12.4426 37.9261 12.1961 37.6796C11.9497 37.4332 11.8112 37.0989 11.8112 36.7504C11.8112 36.4019 11.9497 36.0676 12.1961 35.8211L27.0195 21.0004L12.1961 6.17964C12.0739 6.05772 11.9769 5.91289 11.9108 5.75343C11.8446 5.59398 11.8105 5.42303 11.8105 5.25039C11.8105 5.07775 11.8446 4.90681 11.9108 4.74736C11.9769 4.5879 12.0739 4.44306 12.1961 4.32114Z" fill="#6D00B0"/>
<path fill-rule="evenodd" clip-rule="evenodd" d="M28.1961 4.32114C28.3181 4.19891 28.4629 4.10194 28.6224 4.03577C28.7818 3.96961 28.9528 3.93555 29.1254 3.93555C29.298 3.93555 29.469 3.96961 29.6284 4.03577C29.7879 4.10194 29.9327 4.19891 30.0546 4.32114L45.8046 20.0711C45.9269 20.1931 46.0238 20.3379 46.09 20.4974C46.1562 20.6568 46.1902 20.8278 46.1902 21.0004C46.1902 21.173 46.1562 21.344 46.09 21.5034C46.0238 21.6629 45.9269 21.8077 45.8046 21.9296L30.0546 37.6796C29.8082 37.9261 29.4739 38.0645 29.1254 38.0645C28.7769 38.0645 28.4426 37.9261 28.1961 37.6796C27.9497 37.4332 27.8112 37.0989 27.8112 36.7504C27.8112 36.4019 27.9497 36.0676 28.1961 35.8211L43.0195 21.0004L28.1961 6.17964C28.0739 6.05772 27.9769 5.91289 27.9108 5.75343C27.8446 5.59398 27.8105 5.42303 27.8105 5.25039C27.8105 5.07775 27.8446 4.90681 27.9108 4.74736C27.9769 4.5879 28.0739 4.44306 28.1961 4.32114Z" fill="#8102CF" fill-opacity="0.6"/>
</svg>
