<svg width="21" height="21" viewBox="0 0 21 21" fill="none" xmlns="http://www.w3.org/2000/svg">
<g clip-path="url(#clip0_1202_3968)">
<path d="M3.07662 17.9236C2.07376 16.955 1.27385 15.7964 0.723555 14.5154C0.173261 13.2343 -0.116395 11.8565 -0.12851 10.4623C-0.140625 9.06815 0.125043 7.68551 0.652992 6.3951C1.18094 5.10469 1.9606 3.93235 2.94647 2.94647C3.93235 1.9606 5.10469 1.18094 6.3951 0.652992C7.68551 0.125043 9.06815 -0.140625 10.4623 -0.12851C11.8565 -0.116395 13.2343 0.173261 14.5154 0.723555C15.7964 1.27385 16.955 2.07376 17.9236 3.07662C19.8363 5.05694 20.8946 7.70927 20.8707 10.4623C20.8468 13.2154 19.7425 15.8489 17.7957 17.7957C15.8489 19.7425 13.2154 20.8468 10.4623 20.8707C7.70927 20.8946 5.05694 19.8363 3.07662 17.9236ZM11.9701 10.5001L14.9416 7.52862L13.4611 6.04812L10.5001 9.01962L7.52862 6.04812L6.04812 7.52862L9.01962 10.5001L6.04812 13.4716L7.52862 14.9521L10.5001 11.9806L13.4716 14.9521L14.9521 13.4716L11.9806 10.5001H11.9701Z" fill="#EB09FF"/>
</g>
<defs>
<clipPath id="clip0_1202_3968">
<rect width="21" height="21" fill="white"/>
</clipPath>
</defs>
</svg>
