<svg width="32" height="32" viewBox="0 0 32 32" fill="none" xmlns="http://www.w3.org/2000/svg">
                    <path
                        d="M4.68832 27.3123C3.16016 25.8364 1.94124 24.0709 1.1027 22.1188C0.264156 20.1667 -0.177224 18.0672 -0.195685 15.9427C-0.214146 13.8183 0.190681 11.7114 0.995175 9.74506C1.79967 7.77872 2.98772 5.99229 4.49 4.49C5.99229 2.98772 7.77872 1.79967 9.74506 0.995175C11.7114 0.190681 13.8183 -0.214146 15.9427 -0.195685C18.0672 -0.177224 20.1667 0.264156 22.1188 1.1027C24.0709 1.94124 25.8364 3.16016 27.3123 4.68832C30.2269 7.70596 31.8396 11.7476 31.8031 15.9427C31.7667 20.1379 30.084 24.1509 27.1174 27.1174C24.1509 30.084 20.1379 31.7667 15.9427 31.8031C11.7476 31.8396 7.70596 30.2269 4.68832 27.3123ZM18.2403 16.0003L22.7683 11.4723L20.5123 9.21632L16.0003 13.7443L11.4723 9.21632L9.21632 11.4723L13.7443 16.0003L9.21632 20.5283L11.4723 22.7843L16.0003 18.2563L20.5283 22.7843L22.7843 20.5283L18.2563 16.0003H18.2403Z"
                        fill="#EB09FF" />
                </svg>