<svg width="114" height="90" viewBox="0 0 114 90" fill="none" xmlns="http://www.w3.org/2000/svg">
<g filter="url(#filter0_d_141_4672)">
<path d="M98.9842 14.8522C98.4021 14.2653 97.7095 13.7995 96.9465 13.4816C96.1835 13.1637 95.365 13 94.5384 13C93.7118 13 92.8934 13.1637 92.1303 13.4816C91.3673 13.7995 90.6748 14.2653 90.0927 14.8522L43.4435 61.5639L23.8447 41.9024C23.2403 41.3186 22.5268 40.8595 21.745 40.5514C20.9632 40.2433 20.1284 40.0922 19.2882 40.1068C18.448 40.1213 17.6189 40.3012 16.8482 40.6361C16.0776 40.9711 15.3804 41.4546 14.7966 42.059C14.2128 42.6633 13.7537 43.3768 13.4456 44.1586C13.1375 44.9404 12.9864 45.7752 13.001 46.6154C13.0155 47.4556 13.1954 48.2847 13.5303 49.0554C13.8653 49.826 14.3488 50.5232 14.9531 51.107L38.9978 75.1517C39.5799 75.7386 40.2724 76.2044 41.0355 76.5223C41.7985 76.8402 42.6169 77.0038 43.4435 77.0038C44.2702 77.0038 45.0886 76.8402 45.8516 76.5223C46.6147 76.2044 47.3072 75.7386 47.8893 75.1517L98.9842 24.0568C99.6198 23.4704 100.127 22.7588 100.474 21.9667C100.821 21.1746 101 20.3192 101 19.4545C101 18.5897 100.821 17.7344 100.474 16.9423C100.127 16.1502 99.6198 15.4385 98.9842 14.8522Z" fill="white"/>
</g>
<defs>
<filter id="filter0_d_141_4672" x="0.8" y="0.8" width="112.4" height="88.4038" filterUnits="userSpaceOnUse" color-interpolation-filters="sRGB">
<feFlood flood-opacity="0" result="BackgroundImageFix"/>
<feColorMatrix in="SourceAlpha" type="matrix" values="0 0 0 0 0 0 0 0 0 0 0 0 0 0 0 0 0 0 127 0" result="hardAlpha"/>
<feOffset/>
<feGaussianBlur stdDeviation="6.1"/>
<feComposite in2="hardAlpha" operator="out"/>
<feColorMatrix type="matrix" values="0 0 0 0 0.922914 0 0 0 0 0.0364258 0 0 0 0 1 0 0 0 1 0"/>
<feBlend mode="normal" in2="BackgroundImageFix" result="effect1_dropShadow_141_4672"/>
<feBlend mode="normal" in="SourceGraphic" in2="effect1_dropShadow_141_4672" result="shape"/>
</filter>
</defs>
</svg>
