<svg width="222" height="33" viewBox="0 0 222 33" fill="none" xmlns="http://www.w3.org/2000/svg">
<g filter="url(#filter0_d_164_13)">
<mask id="path-1-outside-1_164_13" maskUnits="userSpaceOnUse" x="4" y="4" width="214" height="25" fill="black">
<rect fill="white" x="4" y="4" width="214" height="25"/>
<path fill-rule="evenodd" clip-rule="evenodd" d="M5.67586 5C5.30259 5 5 5.3218 5 5.71875V9.7171C5 10.1085 5.29451 10.428 5.6625 10.4357C7.40177 10.4723 10.6131 10.4529 12.4537 10.4419C13.0177 10.4385 13.453 10.4358 13.6778 10.4358C13.9106 10.4358 14.0015 10.4976 14.0343 10.5309C14.0614 10.5585 14.1451 10.6636 14.1451 11.0023V26.5625H10.3863V11.8591C10.3863 11.4621 10.0837 11.1403 9.71047 11.1403C9.3372 11.1403 9.0346 11.4621 9.0346 11.8591V27.2812C9.0346 27.6782 9.3372 28 9.71047 28H14.821C15.1942 28 15.4968 27.6782 15.4968 27.2812V11.0023C15.4968 10.4128 15.3452 9.87531 14.9688 9.4923C14.5981 9.1151 14.1175 8.99835 13.6778 8.99835C13.4422 8.99835 12.9938 9.00104 12.417 9.00451C10.788 9.0143 8.13423 9.03025 6.35173 9.00906V6.4375H18.2469V8.99835H17.6452C17.2719 8.99835 16.9693 9.32014 16.9693 9.7171C16.9693 10.1141 17.2719 10.4358 17.6452 10.4358H18.9228C19.2961 10.4358 19.5987 10.1141 19.5987 9.7171V5.71875C19.5987 5.3218 19.2961 5 18.9228 5H5.67586ZM26.21 5C25.8367 5 25.5342 5.3218 25.5342 5.71875V27.2812C25.5342 27.6782 25.8367 28 26.21 28H31.4861C31.8594 28 32.162 27.6782 32.162 27.2812V21.0038C32.162 20.6069 31.8594 20.2851 31.4861 20.2851C31.1129 20.2851 30.8103 20.6069 30.8103 21.0038V26.5625H26.8859V6.4375H30.8103V16.5C30.8103 17.1176 30.9981 17.728 31.4369 18.1835C31.8759 18.6393 32.4899 18.8609 33.1991 18.8609C33.6371 18.8609 34.0551 18.8542 34.4199 18.8484C34.5449 18.8464 34.664 18.8445 34.7751 18.843C34.8782 18.8416 34.9726 18.8407 35.0585 18.8402V27.2812C35.0585 27.6782 35.3611 28 35.7344 28H41.079C41.4523 28 41.7549 27.6782 41.7549 27.2812V5.71875C41.7549 5.3218 41.4523 5 41.079 5H35.7344C35.3611 5 35.0585 5.3218 35.0585 5.71875V14.9987C35.0585 15.3957 35.3611 15.7175 35.7344 15.7175C36.1077 15.7175 36.4103 15.3957 36.4103 14.9987V6.4375H40.4032V26.5625H36.4103V18.1422C36.4103 17.779 36.1555 17.4729 35.8166 17.4288C35.5779 17.3977 35.1814 17.3999 34.758 17.4056C34.6416 17.4072 34.5196 17.4091 34.3927 17.4112L34.3912 17.4112C34.0287 17.417 33.6258 17.4234 33.1991 17.4234C32.7521 17.4234 32.5095 17.2881 32.3811 17.1548C32.2524 17.0213 32.162 16.8106 32.162 16.5V5.71875C32.162 5.3218 31.8594 5 31.4861 5H26.21ZM48.0404 5.71875C48.0404 5.3218 48.343 5 48.7163 5H61.6929C62.0662 5 62.3688 5.3218 62.3688 5.71875V9.16875C62.3688 9.5657 62.0662 9.8875 61.6929 9.8875H54.3936V13.7687H59.8681C60.2413 13.7687 60.5439 14.0905 60.5439 14.4875V17.9375C60.5439 18.3345 60.2413 18.6562 59.8681 18.6562H50.6087C50.5689 18.6562 50.5291 18.6525 50.4899 18.6451C50.296 18.6082 50.0133 18.634 49.8022 18.7844C49.6333 18.9047 49.3922 19.1878 49.3922 19.95V26.5625H61.017V24.4781H53.7177C53.3444 24.4781 53.0418 24.1563 53.0418 23.7594V20.8844C53.0418 20.4874 53.3444 20.1656 53.7177 20.1656C54.091 20.1656 54.3936 20.4874 54.3936 20.8844V23.0406H61.6929C62.0662 23.0406 62.3688 23.3624 62.3688 23.7594V27.2812C62.3688 27.6782 62.0662 28 61.6929 28H48.7163C48.343 28 48.0404 27.6782 48.0404 27.2812V19.95C48.0404 18.8147 48.4302 18.0316 49.0498 17.5901C49.5993 17.1986 50.2267 17.1509 50.6627 17.2187H59.1922V15.2062H53.7177C53.3444 15.2062 53.0418 14.8845 53.0418 14.4875V9.16875C53.0418 8.7718 53.3444 8.45 53.7177 8.45H61.017V6.4375H49.3922V15.1344C49.3922 15.5313 49.0896 15.8531 48.7163 15.8531C48.343 15.8531 48.0404 15.5313 48.0404 15.1344V5.71875ZM78.5219 5C78.1487 5 77.8461 5.3218 77.8461 5.71875V27.2812C77.8461 27.6782 78.1487 28 78.5219 28H83.6412C84.0145 28 84.3171 27.6782 84.3171 27.2812V15.1318L87.5695 18.2183C87.848 18.4826 88.2753 18.4567 88.5238 18.1605C88.7723 17.8644 88.748 17.41 88.4695 17.1457L84.0912 12.9908C83.8924 12.8022 83.608 12.7553 83.3649 12.8711C83.1218 12.9869 82.9653 13.2438 82.9653 13.5271V26.5625H79.1978V6.4375H81.8891C83.5814 8.14863 86.2578 10.8061 88.5443 13.0683C89.7332 14.2447 90.8175 15.315 91.6046 16.0913C91.9982 16.4794 92.3175 16.794 92.5383 17.0116L92.665 17.1364V27.2812C92.665 27.6782 92.9676 28 93.3409 28H98.5275C98.9008 28 99.2034 27.6782 99.2034 27.2812V5.71875C99.2034 5.3218 98.9008 5 98.5275 5H94.8901C94.6947 5 94.5088 5.08997 94.3805 5.2467L90.7431 9.68815C90.4979 9.98749 90.5274 10.4415 90.8089 10.7022C91.0903 10.9629 91.5173 10.9316 91.7624 10.6322L95.1978 6.4375H97.8516V26.5625H94.0167V16.8224C94.0167 16.6221 93.9381 16.4308 93.7999 16.2948L93.7112 16.2075C93.6531 16.1502 93.5673 16.0658 93.4569 15.9571C93.2362 15.7396 92.9171 15.4252 92.5238 15.0372C91.7371 14.2614 90.6533 13.1916 89.465 12.0159C87.0875 9.66348 84.295 6.89042 82.6256 5.19845C82.4999 5.07106 82.3329 5 82.1593 5H78.5219ZM190.027 13.3456C190.027 11.946 189.635 9.86261 188.398 8.1171C187.135 6.33545 185.037 4.97087 181.776 5.00047C178.517 5.03006 176.395 6.43039 175.104 8.20318C173.837 9.94356 173.401 11.9975 173.401 13.3456V18.6842C173.401 20.6837 173.608 23.7265 176.265 26.2251C176.545 26.488 176.972 26.4601 177.219 26.1627C177.466 25.8654 177.44 25.4111 177.161 25.1482C174.951 23.0709 174.753 20.5672 174.753 18.6842V13.3456C174.753 12.2672 175.115 10.5357 176.173 9.08334C177.207 7.66341 178.937 6.4638 181.788 6.43792C184.636 6.41206 186.323 7.57808 187.318 8.98221C188.339 10.4225 188.676 12.18 188.676 13.3456V19.9321C188.676 21.2995 188.184 22.9897 187.268 24.3276C186.358 25.6566 185.088 26.5625 183.539 26.5625C182.249 26.5625 181.43 26.1719 180.931 25.6271C180.428 25.0776 180.16 24.2731 180.16 23.26V12.0977C180.16 11.5734 180.309 11.0847 180.573 10.7416C180.823 10.417 181.204 10.1818 181.782 10.1818C182.349 10.1818 182.685 10.4179 182.901 10.7348C183.139 11.0826 183.265 11.5814 183.269 12.1036C183.287 14.4124 183.276 18.499 183.271 20.4787C183.27 20.9928 183.269 21.3648 183.269 21.5268C183.269 22.23 182.933 22.6343 182.435 22.89C182.098 23.0624 181.957 23.492 182.119 23.8496C182.281 24.2071 182.685 24.3572 183.022 24.1848C183.875 23.7471 184.621 22.9034 184.621 21.5268C184.621 21.3691 184.621 21.0033 184.623 20.4961V20.494V20.4913V20.4855C184.628 18.5085 184.638 14.407 184.62 12.0918C184.615 11.366 184.444 10.5475 183.995 9.88997C183.525 9.20158 182.783 8.74435 181.782 8.74435C180.805 8.74435 180.037 9.16783 179.527 9.83118C179.031 10.4761 178.808 11.3047 178.808 12.0977V23.26C178.808 24.5349 179.148 25.741 179.963 26.6302C180.782 27.5239 181.99 28 183.539 28C185.64 28 187.277 26.7567 188.36 25.1737C189.438 23.5997 190.027 21.6154 190.027 19.9321V13.3456ZM105.962 5.71875C105.962 5.3218 106.265 5 106.638 5H111.639C112.013 5 112.315 5.3218 112.315 5.71875V27.2812C112.315 27.6782 112.013 28 111.639 28H106.638C106.265 28 105.962 27.6782 105.962 27.2812V11.9811C105.962 11.4197 106.084 10.8437 106.458 10.4045C106.843 9.95226 107.389 9.76795 107.99 9.76795H109.477C109.85 9.76795 110.152 10.0897 110.152 10.4867C110.152 10.8836 109.85 11.2054 109.477 11.2054H107.99C107.644 11.2054 107.514 11.3058 107.46 11.3694C107.395 11.4463 107.314 11.6174 107.314 11.9811V26.5625H110.963V6.4375H107.314V8.1383C107.314 8.53526 107.011 8.85705 106.638 8.85705C106.265 8.85705 105.962 8.53526 105.962 8.1383V5.71875ZM160.83 5C160.457 5 160.154 5.3218 160.154 5.71875V8.1383C160.154 8.53526 160.457 8.85705 160.83 8.85705C161.203 8.85705 161.506 8.53526 161.506 8.1383V6.4375H165.156V26.5625H161.506V11.9811C161.506 11.6174 161.587 11.4463 161.652 11.3694C161.706 11.3058 161.836 11.2054 162.182 11.2054H163.669C164.042 11.2054 164.345 10.8836 164.345 10.4867C164.345 10.0897 164.042 9.76795 163.669 9.76795H162.182C161.582 9.76795 161.035 9.95226 160.65 10.4045C160.276 10.8437 160.154 11.4197 160.154 11.9811V27.2812C160.154 27.6782 160.457 28 160.83 28H165.831C166.205 28 166.507 27.6782 166.507 27.2812V5.71875C166.507 5.3218 166.205 5 165.831 5H160.83ZM118.939 5.71875C118.939 5.3218 119.241 5 119.614 5H128.96C129.209 5 129.437 5.14513 129.555 5.37789C129.673 5.61064 129.661 5.89343 129.525 6.11419L121.568 18.9571V26.5625H125.864V18.3858C125.864 18.2355 125.908 18.0889 125.991 17.9667L131.915 9.18802V5.71875C131.915 5.3218 132.218 5 132.591 5C132.964 5 133.267 5.3218 133.267 5.71875V9.41924C133.267 9.5696 133.223 9.71617 133.14 9.83833L127.216 18.6171V27.2812C127.216 27.6782 126.913 28 126.54 28H120.892C120.519 28 120.216 27.6782 120.216 27.2812V18.7416C120.216 18.6011 120.255 18.4636 120.328 18.3462L127.706 6.4375H120.29V8.70049H123.178C123.551 8.70049 123.854 9.02229 123.854 9.41924C123.854 9.8162 123.551 10.138 123.178 10.138H119.614C119.241 10.138 118.939 9.8162 118.939 9.41924V5.71875ZM140.013 5C139.64 5 139.338 5.3218 139.338 5.71875V9.41924C139.338 9.8162 139.64 10.138 140.013 10.138H143.577C143.95 10.138 144.253 9.8162 144.253 9.41924C144.253 9.02229 143.95 8.70049 143.577 8.70049H140.689V6.4375H148.105L140.727 18.3462C140.654 18.4636 140.615 18.6011 140.615 18.7416V27.2812C140.615 27.6782 140.918 28 141.291 28H146.939C147.312 28 147.615 27.6782 147.615 27.2812V18.6171L153.539 9.83833C153.622 9.71617 153.666 9.5696 153.666 9.41924V5.71875C153.666 5.3218 153.363 5 152.99 5C152.617 5 152.314 5.3218 152.314 5.71875V9.18802L146.39 17.9667C146.307 18.0889 146.263 18.2355 146.263 18.3858V26.5625H141.967V18.9571L149.924 6.11419C150.06 5.89343 150.072 5.61064 149.954 5.37789C149.836 5.14513 149.608 5 149.359 5H140.013ZM197.056 5.71875C197.056 5.3218 197.359 5 197.732 5H203.321C203.534 5 203.696 5.09891 203.754 5.13533C203.835 5.1865 203.91 5.24819 203.973 5.3053C204.102 5.4212 204.248 5.57621 204.403 5.75288C204.717 6.10989 205.119 6.6153 205.583 7.2255C206.513 8.44926 207.725 10.1372 209.033 12.0047C211.158 15.0363 213.551 18.5581 215.44 21.3745V6.4375H211.337V10.1847C211.337 10.5817 211.035 10.9035 210.661 10.9035C210.288 10.9035 209.985 10.5817 209.985 10.1847V5.71875C209.985 5.3218 210.288 5 210.661 5H216.116C216.489 5 216.792 5.3218 216.792 5.71875V23.6266C216.792 23.9396 216.601 24.2166 216.321 24.3115C216.04 24.4064 215.734 24.2973 215.564 24.0418C213.579 21.0599 210.559 16.5881 207.949 12.8637C206.644 11.0004 205.445 9.3306 204.532 8.12934C204.074 7.52703 203.696 7.05311 203.415 6.73391C203.297 6.599 203.205 6.5019 203.137 6.4375H198.408V26.5625H202.646V14.7092C202.646 14.3956 202.837 14.1181 203.118 14.0238C203.399 13.9294 203.706 14.0399 203.875 14.2968L211.956 26.5625H216.116C216.489 26.5625 216.792 26.8843 216.792 27.2812C216.792 27.6782 216.489 28 216.116 28H211.604C211.384 28 211.177 27.8857 211.051 27.6937L203.997 16.9877V27.2812C203.997 27.6782 203.695 28 203.321 28H197.732C197.359 28 197.056 27.6782 197.056 27.2812V5.71875Z"/>
</mask>
<path fill-rule="evenodd" clip-rule="evenodd" d="M5.67586 5C5.30259 5 5 5.3218 5 5.71875V9.7171C5 10.1085 5.29451 10.428 5.6625 10.4357C7.40177 10.4723 10.6131 10.4529 12.4537 10.4419C13.0177 10.4385 13.453 10.4358 13.6778 10.4358C13.9106 10.4358 14.0015 10.4976 14.0343 10.5309C14.0614 10.5585 14.1451 10.6636 14.1451 11.0023V26.5625H10.3863V11.8591C10.3863 11.4621 10.0837 11.1403 9.71047 11.1403C9.3372 11.1403 9.0346 11.4621 9.0346 11.8591V27.2812C9.0346 27.6782 9.3372 28 9.71047 28H14.821C15.1942 28 15.4968 27.6782 15.4968 27.2812V11.0023C15.4968 10.4128 15.3452 9.87531 14.9688 9.4923C14.5981 9.1151 14.1175 8.99835 13.6778 8.99835C13.4422 8.99835 12.9938 9.00104 12.417 9.00451C10.788 9.0143 8.13423 9.03025 6.35173 9.00906V6.4375H18.2469V8.99835H17.6452C17.2719 8.99835 16.9693 9.32014 16.9693 9.7171C16.9693 10.1141 17.2719 10.4358 17.6452 10.4358H18.9228C19.2961 10.4358 19.5987 10.1141 19.5987 9.7171V5.71875C19.5987 5.3218 19.2961 5 18.9228 5H5.67586ZM26.21 5C25.8367 5 25.5342 5.3218 25.5342 5.71875V27.2812C25.5342 27.6782 25.8367 28 26.21 28H31.4861C31.8594 28 32.162 27.6782 32.162 27.2812V21.0038C32.162 20.6069 31.8594 20.2851 31.4861 20.2851C31.1129 20.2851 30.8103 20.6069 30.8103 21.0038V26.5625H26.8859V6.4375H30.8103V16.5C30.8103 17.1176 30.9981 17.728 31.4369 18.1835C31.8759 18.6393 32.4899 18.8609 33.1991 18.8609C33.6371 18.8609 34.0551 18.8542 34.4199 18.8484C34.5449 18.8464 34.664 18.8445 34.7751 18.843C34.8782 18.8416 34.9726 18.8407 35.0585 18.8402V27.2812C35.0585 27.6782 35.3611 28 35.7344 28H41.079C41.4523 28 41.7549 27.6782 41.7549 27.2812V5.71875C41.7549 5.3218 41.4523 5 41.079 5H35.7344C35.3611 5 35.0585 5.3218 35.0585 5.71875V14.9987C35.0585 15.3957 35.3611 15.7175 35.7344 15.7175C36.1077 15.7175 36.4103 15.3957 36.4103 14.9987V6.4375H40.4032V26.5625H36.4103V18.1422C36.4103 17.779 36.1555 17.4729 35.8166 17.4288C35.5779 17.3977 35.1814 17.3999 34.758 17.4056C34.6416 17.4072 34.5196 17.4091 34.3927 17.4112L34.3912 17.4112C34.0287 17.417 33.6258 17.4234 33.1991 17.4234C32.7521 17.4234 32.5095 17.2881 32.3811 17.1548C32.2524 17.0213 32.162 16.8106 32.162 16.5V5.71875C32.162 5.3218 31.8594 5 31.4861 5H26.21ZM48.0404 5.71875C48.0404 5.3218 48.343 5 48.7163 5H61.6929C62.0662 5 62.3688 5.3218 62.3688 5.71875V9.16875C62.3688 9.5657 62.0662 9.8875 61.6929 9.8875H54.3936V13.7687H59.8681C60.2413 13.7687 60.5439 14.0905 60.5439 14.4875V17.9375C60.5439 18.3345 60.2413 18.6562 59.8681 18.6562H50.6087C50.5689 18.6562 50.5291 18.6525 50.4899 18.6451C50.296 18.6082 50.0133 18.634 49.8022 18.7844C49.6333 18.9047 49.3922 19.1878 49.3922 19.95V26.5625H61.017V24.4781H53.7177C53.3444 24.4781 53.0418 24.1563 53.0418 23.7594V20.8844C53.0418 20.4874 53.3444 20.1656 53.7177 20.1656C54.091 20.1656 54.3936 20.4874 54.3936 20.8844V23.0406H61.6929C62.0662 23.0406 62.3688 23.3624 62.3688 23.7594V27.2812C62.3688 27.6782 62.0662 28 61.6929 28H48.7163C48.343 28 48.0404 27.6782 48.0404 27.2812V19.95C48.0404 18.8147 48.4302 18.0316 49.0498 17.5901C49.5993 17.1986 50.2267 17.1509 50.6627 17.2187H59.1922V15.2062H53.7177C53.3444 15.2062 53.0418 14.8845 53.0418 14.4875V9.16875C53.0418 8.7718 53.3444 8.45 53.7177 8.45H61.017V6.4375H49.3922V15.1344C49.3922 15.5313 49.0896 15.8531 48.7163 15.8531C48.343 15.8531 48.0404 15.5313 48.0404 15.1344V5.71875ZM78.5219 5C78.1487 5 77.8461 5.3218 77.8461 5.71875V27.2812C77.8461 27.6782 78.1487 28 78.5219 28H83.6412C84.0145 28 84.3171 27.6782 84.3171 27.2812V15.1318L87.5695 18.2183C87.848 18.4826 88.2753 18.4567 88.5238 18.1605C88.7723 17.8644 88.748 17.41 88.4695 17.1457L84.0912 12.9908C83.8924 12.8022 83.608 12.7553 83.3649 12.8711C83.1218 12.9869 82.9653 13.2438 82.9653 13.5271V26.5625H79.1978V6.4375H81.8891C83.5814 8.14863 86.2578 10.8061 88.5443 13.0683C89.7332 14.2447 90.8175 15.315 91.6046 16.0913C91.9982 16.4794 92.3175 16.794 92.5383 17.0116L92.665 17.1364V27.2812C92.665 27.6782 92.9676 28 93.3409 28H98.5275C98.9008 28 99.2034 27.6782 99.2034 27.2812V5.71875C99.2034 5.3218 98.9008 5 98.5275 5H94.8901C94.6947 5 94.5088 5.08997 94.3805 5.2467L90.7431 9.68815C90.4979 9.98749 90.5274 10.4415 90.8089 10.7022C91.0903 10.9629 91.5173 10.9316 91.7624 10.6322L95.1978 6.4375H97.8516V26.5625H94.0167V16.8224C94.0167 16.6221 93.9381 16.4308 93.7999 16.2948L93.7112 16.2075C93.6531 16.1502 93.5673 16.0658 93.4569 15.9571C93.2362 15.7396 92.9171 15.4252 92.5238 15.0372C91.7371 14.2614 90.6533 13.1916 89.465 12.0159C87.0875 9.66348 84.295 6.89042 82.6256 5.19845C82.4999 5.07106 82.3329 5 82.1593 5H78.5219ZM190.027 13.3456C190.027 11.946 189.635 9.86261 188.398 8.1171C187.135 6.33545 185.037 4.97087 181.776 5.00047C178.517 5.03006 176.395 6.43039 175.104 8.20318C173.837 9.94356 173.401 11.9975 173.401 13.3456V18.6842C173.401 20.6837 173.608 23.7265 176.265 26.2251C176.545 26.488 176.972 26.4601 177.219 26.1627C177.466 25.8654 177.44 25.4111 177.161 25.1482C174.951 23.0709 174.753 20.5672 174.753 18.6842V13.3456C174.753 12.2672 175.115 10.5357 176.173 9.08334C177.207 7.66341 178.937 6.4638 181.788 6.43792C184.636 6.41206 186.323 7.57808 187.318 8.98221C188.339 10.4225 188.676 12.18 188.676 13.3456V19.9321C188.676 21.2995 188.184 22.9897 187.268 24.3276C186.358 25.6566 185.088 26.5625 183.539 26.5625C182.249 26.5625 181.43 26.1719 180.931 25.6271C180.428 25.0776 180.16 24.2731 180.16 23.26V12.0977C180.16 11.5734 180.309 11.0847 180.573 10.7416C180.823 10.417 181.204 10.1818 181.782 10.1818C182.349 10.1818 182.685 10.4179 182.901 10.7348C183.139 11.0826 183.265 11.5814 183.269 12.1036C183.287 14.4124 183.276 18.499 183.271 20.4787C183.27 20.9928 183.269 21.3648 183.269 21.5268C183.269 22.23 182.933 22.6343 182.435 22.89C182.098 23.0624 181.957 23.492 182.119 23.8496C182.281 24.2071 182.685 24.3572 183.022 24.1848C183.875 23.7471 184.621 22.9034 184.621 21.5268C184.621 21.3691 184.621 21.0033 184.623 20.4961V20.494V20.4913V20.4855C184.628 18.5085 184.638 14.407 184.62 12.0918C184.615 11.366 184.444 10.5475 183.995 9.88997C183.525 9.20158 182.783 8.74435 181.782 8.74435C180.805 8.74435 180.037 9.16783 179.527 9.83118C179.031 10.4761 178.808 11.3047 178.808 12.0977V23.26C178.808 24.5349 179.148 25.741 179.963 26.6302C180.782 27.5239 181.99 28 183.539 28C185.64 28 187.277 26.7567 188.36 25.1737C189.438 23.5997 190.027 21.6154 190.027 19.9321V13.3456ZM105.962 5.71875C105.962 5.3218 106.265 5 106.638 5H111.639C112.013 5 112.315 5.3218 112.315 5.71875V27.2812C112.315 27.6782 112.013 28 111.639 28H106.638C106.265 28 105.962 27.6782 105.962 27.2812V11.9811C105.962 11.4197 106.084 10.8437 106.458 10.4045C106.843 9.95226 107.389 9.76795 107.99 9.76795H109.477C109.85 9.76795 110.152 10.0897 110.152 10.4867C110.152 10.8836 109.85 11.2054 109.477 11.2054H107.99C107.644 11.2054 107.514 11.3058 107.46 11.3694C107.395 11.4463 107.314 11.6174 107.314 11.9811V26.5625H110.963V6.4375H107.314V8.1383C107.314 8.53526 107.011 8.85705 106.638 8.85705C106.265 8.85705 105.962 8.53526 105.962 8.1383V5.71875ZM160.83 5C160.457 5 160.154 5.3218 160.154 5.71875V8.1383C160.154 8.53526 160.457 8.85705 160.83 8.85705C161.203 8.85705 161.506 8.53526 161.506 8.1383V6.4375H165.156V26.5625H161.506V11.9811C161.506 11.6174 161.587 11.4463 161.652 11.3694C161.706 11.3058 161.836 11.2054 162.182 11.2054H163.669C164.042 11.2054 164.345 10.8836 164.345 10.4867C164.345 10.0897 164.042 9.76795 163.669 9.76795H162.182C161.582 9.76795 161.035 9.95226 160.65 10.4045C160.276 10.8437 160.154 11.4197 160.154 11.9811V27.2812C160.154 27.6782 160.457 28 160.83 28H165.831C166.205 28 166.507 27.6782 166.507 27.2812V5.71875C166.507 5.3218 166.205 5 165.831 5H160.83ZM118.939 5.71875C118.939 5.3218 119.241 5 119.614 5H128.96C129.209 5 129.437 5.14513 129.555 5.37789C129.673 5.61064 129.661 5.89343 129.525 6.11419L121.568 18.9571V26.5625H125.864V18.3858C125.864 18.2355 125.908 18.0889 125.991 17.9667L131.915 9.18802V5.71875C131.915 5.3218 132.218 5 132.591 5C132.964 5 133.267 5.3218 133.267 5.71875V9.41924C133.267 9.5696 133.223 9.71617 133.14 9.83833L127.216 18.6171V27.2812C127.216 27.6782 126.913 28 126.54 28H120.892C120.519 28 120.216 27.6782 120.216 27.2812V18.7416C120.216 18.6011 120.255 18.4636 120.328 18.3462L127.706 6.4375H120.29V8.70049H123.178C123.551 8.70049 123.854 9.02229 123.854 9.41924C123.854 9.8162 123.551 10.138 123.178 10.138H119.614C119.241 10.138 118.939 9.8162 118.939 9.41924V5.71875ZM140.013 5C139.64 5 139.338 5.3218 139.338 5.71875V9.41924C139.338 9.8162 139.64 10.138 140.013 10.138H143.577C143.95 10.138 144.253 9.8162 144.253 9.41924C144.253 9.02229 143.95 8.70049 143.577 8.70049H140.689V6.4375H148.105L140.727 18.3462C140.654 18.4636 140.615 18.6011 140.615 18.7416V27.2812C140.615 27.6782 140.918 28 141.291 28H146.939C147.312 28 147.615 27.6782 147.615 27.2812V18.6171L153.539 9.83833C153.622 9.71617 153.666 9.5696 153.666 9.41924V5.71875C153.666 5.3218 153.363 5 152.99 5C152.617 5 152.314 5.3218 152.314 5.71875V9.18802L146.39 17.9667C146.307 18.0889 146.263 18.2355 146.263 18.3858V26.5625H141.967V18.9571L149.924 6.11419C150.06 5.89343 150.072 5.61064 149.954 5.37789C149.836 5.14513 149.608 5 149.359 5H140.013ZM197.056 5.71875C197.056 5.3218 197.359 5 197.732 5H203.321C203.534 5 203.696 5.09891 203.754 5.13533C203.835 5.1865 203.91 5.24819 203.973 5.3053C204.102 5.4212 204.248 5.57621 204.403 5.75288C204.717 6.10989 205.119 6.6153 205.583 7.2255C206.513 8.44926 207.725 10.1372 209.033 12.0047C211.158 15.0363 213.551 18.5581 215.44 21.3745V6.4375H211.337V10.1847C211.337 10.5817 211.035 10.9035 210.661 10.9035C210.288 10.9035 209.985 10.5817 209.985 10.1847V5.71875C209.985 5.3218 210.288 5 210.661 5H216.116C216.489 5 216.792 5.3218 216.792 5.71875V23.6266C216.792 23.9396 216.601 24.2166 216.321 24.3115C216.04 24.4064 215.734 24.2973 215.564 24.0418C213.579 21.0599 210.559 16.5881 207.949 12.8637C206.644 11.0004 205.445 9.3306 204.532 8.12934C204.074 7.52703 203.696 7.05311 203.415 6.73391C203.297 6.599 203.205 6.5019 203.137 6.4375H198.408V26.5625H202.646V14.7092C202.646 14.3956 202.837 14.1181 203.118 14.0238C203.399 13.9294 203.706 14.0399 203.875 14.2968L211.956 26.5625H216.116C216.489 26.5625 216.792 26.8843 216.792 27.2812C216.792 27.6782 216.489 28 216.116 28H211.604C211.384 28 211.177 27.8857 211.051 27.6937L203.997 16.9877V27.2812C203.997 27.6782 203.695 28 203.321 28H197.732C197.359 28 197.056 27.6782 197.056 27.2812V5.71875Z" stroke="#EB09FF" stroke-width="2" stroke-linecap="round" stroke-linejoin="round" shape-rendering="crispEdges" mask="url(#path-1-outside-1_164_13)"/>
</g>
<path fill-rule="evenodd" clip-rule="evenodd" d="M5.67586 5C5.30259 5 5 5.3218 5 5.71875V9.7171C5 10.1085 5.29451 10.428 5.6625 10.4357C7.40177 10.4723 10.6131 10.4529 12.4537 10.4419C13.0177 10.4385 13.453 10.4358 13.6778 10.4358C13.9106 10.4358 14.0015 10.4976 14.0343 10.5309C14.0614 10.5585 14.1451 10.6636 14.1451 11.0023V26.5625H10.3863V11.8591C10.3863 11.4621 10.0837 11.1403 9.71047 11.1403C9.3372 11.1403 9.0346 11.4621 9.0346 11.8591V27.2812C9.0346 27.6782 9.3372 28 9.71047 28H14.821C15.1942 28 15.4968 27.6782 15.4968 27.2812V11.0023C15.4968 10.4128 15.3452 9.87531 14.9688 9.4923C14.5981 9.1151 14.1175 8.99835 13.6778 8.99835C13.4422 8.99835 12.9938 9.00104 12.417 9.00451C10.788 9.0143 8.13423 9.03025 6.35173 9.00906V6.4375H18.2469V8.99835H17.6452C17.2719 8.99835 16.9693 9.32014 16.9693 9.7171C16.9693 10.1141 17.2719 10.4358 17.6452 10.4358H18.9228C19.2961 10.4358 19.5987 10.1141 19.5987 9.7171V5.71875C19.5987 5.3218 19.2961 5 18.9228 5H5.67586ZM26.21 5C25.8367 5 25.5342 5.3218 25.5342 5.71875V27.2812C25.5342 27.6782 25.8367 28 26.21 28H31.4861C31.8594 28 32.162 27.6782 32.162 27.2812V21.0038C32.162 20.6069 31.8594 20.2851 31.4861 20.2851C31.1129 20.2851 30.8103 20.6069 30.8103 21.0038V26.5625H26.8859V6.4375H30.8103V16.5C30.8103 17.1176 30.9981 17.728 31.4369 18.1835C31.8759 18.6393 32.4899 18.8609 33.1991 18.8609C33.6371 18.8609 34.0551 18.8542 34.4199 18.8484C34.5449 18.8464 34.664 18.8445 34.7751 18.843C34.8782 18.8416 34.9726 18.8407 35.0585 18.8402V27.2812C35.0585 27.6782 35.3611 28 35.7344 28H41.079C41.4523 28 41.7549 27.6782 41.7549 27.2812V5.71875C41.7549 5.3218 41.4523 5 41.079 5H35.7344C35.3611 5 35.0585 5.3218 35.0585 5.71875V14.9987C35.0585 15.3957 35.3611 15.7175 35.7344 15.7175C36.1077 15.7175 36.4103 15.3957 36.4103 14.9987V6.4375H40.4032V26.5625H36.4103V18.1422C36.4103 17.779 36.1555 17.4729 35.8166 17.4288C35.5779 17.3977 35.1814 17.3999 34.758 17.4056C34.6416 17.4072 34.5196 17.4091 34.3927 17.4112L34.3912 17.4112C34.0287 17.417 33.6258 17.4234 33.1991 17.4234C32.7521 17.4234 32.5095 17.2881 32.3811 17.1548C32.2524 17.0213 32.162 16.8106 32.162 16.5V5.71875C32.162 5.3218 31.8594 5 31.4861 5H26.21ZM48.0404 5.71875C48.0404 5.3218 48.343 5 48.7163 5H61.6929C62.0662 5 62.3688 5.3218 62.3688 5.71875V9.16875C62.3688 9.5657 62.0662 9.8875 61.6929 9.8875H54.3936V13.7687H59.8681C60.2413 13.7687 60.5439 14.0905 60.5439 14.4875V17.9375C60.5439 18.3345 60.2413 18.6562 59.8681 18.6562H50.6087C50.5689 18.6562 50.5291 18.6525 50.4899 18.6451C50.296 18.6082 50.0133 18.634 49.8022 18.7844C49.6333 18.9047 49.3922 19.1878 49.3922 19.95V26.5625H61.017V24.4781H53.7177C53.3444 24.4781 53.0418 24.1563 53.0418 23.7594V20.8844C53.0418 20.4874 53.3444 20.1656 53.7177 20.1656C54.091 20.1656 54.3936 20.4874 54.3936 20.8844V23.0406H61.6929C62.0662 23.0406 62.3688 23.3624 62.3688 23.7594V27.2812C62.3688 27.6782 62.0662 28 61.6929 28H48.7163C48.343 28 48.0404 27.6782 48.0404 27.2812V19.95C48.0404 18.8147 48.4302 18.0316 49.0498 17.5901C49.5993 17.1986 50.2267 17.1509 50.6627 17.2187H59.1922V15.2062H53.7177C53.3444 15.2062 53.0418 14.8845 53.0418 14.4875V9.16875C53.0418 8.7718 53.3444 8.45 53.7177 8.45H61.017V6.4375H49.3922V15.1344C49.3922 15.5313 49.0896 15.8531 48.7163 15.8531C48.343 15.8531 48.0404 15.5313 48.0404 15.1344V5.71875ZM78.5219 5C78.1487 5 77.8461 5.3218 77.8461 5.71875V27.2812C77.8461 27.6782 78.1487 28 78.5219 28H83.6412C84.0145 28 84.3171 27.6782 84.3171 27.2812V15.1318L87.5695 18.2183C87.848 18.4826 88.2753 18.4567 88.5238 18.1605C88.7723 17.8644 88.748 17.41 88.4695 17.1457L84.0912 12.9908C83.8924 12.8022 83.608 12.7553 83.3649 12.8711C83.1218 12.9869 82.9653 13.2438 82.9653 13.5271V26.5625H79.1978V6.4375H81.8891C83.5814 8.14863 86.2578 10.8061 88.5443 13.0683C89.7332 14.2447 90.8175 15.315 91.6046 16.0913C91.9982 16.4794 92.3175 16.794 92.5383 17.0116L92.665 17.1364V27.2812C92.665 27.6782 92.9676 28 93.3409 28H98.5275C98.9008 28 99.2034 27.6782 99.2034 27.2812V5.71875C99.2034 5.3218 98.9008 5 98.5275 5H94.8901C94.6947 5 94.5088 5.08997 94.3805 5.2467L90.7431 9.68815C90.4979 9.98749 90.5274 10.4415 90.8089 10.7022C91.0903 10.9629 91.5173 10.9316 91.7624 10.6322L95.1978 6.4375H97.8516V26.5625H94.0167V16.8224C94.0167 16.6221 93.9381 16.4308 93.7999 16.2948L93.7112 16.2075C93.6531 16.1502 93.5673 16.0658 93.4569 15.9571C93.2362 15.7396 92.9171 15.4252 92.5238 15.0372C91.7371 14.2614 90.6533 13.1916 89.465 12.0159C87.0875 9.66348 84.295 6.89042 82.6256 5.19845C82.4999 5.07106 82.3329 5 82.1593 5H78.5219ZM190.027 13.3456C190.027 11.946 189.635 9.86261 188.398 8.1171C187.135 6.33545 185.037 4.97087 181.776 5.00047C178.517 5.03006 176.395 6.43039 175.104 8.20318C173.837 9.94356 173.401 11.9975 173.401 13.3456V18.6842C173.401 20.6837 173.608 23.7265 176.265 26.2251C176.545 26.488 176.972 26.4601 177.219 26.1627C177.466 25.8654 177.44 25.4111 177.161 25.1482C174.951 23.0709 174.753 20.5672 174.753 18.6842V13.3456C174.753 12.2672 175.115 10.5357 176.173 9.08334C177.207 7.66341 178.937 6.4638 181.788 6.43792C184.636 6.41206 186.323 7.57808 187.318 8.98221C188.339 10.4225 188.676 12.18 188.676 13.3456V19.9321C188.676 21.2995 188.184 22.9897 187.268 24.3276C186.358 25.6566 185.088 26.5625 183.539 26.5625C182.249 26.5625 181.43 26.1719 180.931 25.6271C180.428 25.0776 180.16 24.2731 180.16 23.26V12.0977C180.16 11.5734 180.309 11.0847 180.573 10.7416C180.823 10.417 181.204 10.1818 181.782 10.1818C182.349 10.1818 182.685 10.4179 182.901 10.7348C183.139 11.0826 183.265 11.5814 183.269 12.1036C183.287 14.4124 183.276 18.499 183.271 20.4787C183.27 20.9928 183.269 21.3648 183.269 21.5268C183.269 22.23 182.933 22.6343 182.435 22.89C182.098 23.0624 181.957 23.492 182.119 23.8496C182.281 24.2071 182.685 24.3572 183.022 24.1848C183.875 23.7471 184.621 22.9034 184.621 21.5268C184.621 21.3691 184.621 21.0033 184.623 20.4961V20.494V20.4913V20.4855C184.628 18.5085 184.638 14.407 184.62 12.0918C184.615 11.366 184.444 10.5475 183.995 9.88997C183.525 9.20158 182.783 8.74435 181.782 8.74435C180.805 8.74435 180.037 9.16783 179.527 9.83118C179.031 10.4761 178.808 11.3047 178.808 12.0977V23.26C178.808 24.5349 179.148 25.741 179.963 26.6302C180.782 27.5239 181.99 28 183.539 28C185.64 28 187.277 26.7567 188.36 25.1737C189.438 23.5997 190.027 21.6154 190.027 19.9321V13.3456ZM105.962 5.71875C105.962 5.3218 106.265 5 106.638 5H111.639C112.013 5 112.315 5.3218 112.315 5.71875V27.2812C112.315 27.6782 112.013 28 111.639 28H106.638C106.265 28 105.962 27.6782 105.962 27.2812V11.9811C105.962 11.4197 106.084 10.8437 106.458 10.4045C106.843 9.95226 107.389 9.76795 107.99 9.76795H109.477C109.85 9.76795 110.152 10.0897 110.152 10.4867C110.152 10.8836 109.85 11.2054 109.477 11.2054H107.99C107.644 11.2054 107.514 11.3058 107.46 11.3694C107.395 11.4463 107.314 11.6174 107.314 11.9811V26.5625H110.963V6.4375H107.314V8.1383C107.314 8.53526 107.011 8.85705 106.638 8.85705C106.265 8.85705 105.962 8.53526 105.962 8.1383V5.71875ZM160.83 5C160.457 5 160.154 5.3218 160.154 5.71875V8.1383C160.154 8.53526 160.457 8.85705 160.83 8.85705C161.203 8.85705 161.506 8.53526 161.506 8.1383V6.4375H165.156V26.5625H161.506V11.9811C161.506 11.6174 161.587 11.4463 161.652 11.3694C161.706 11.3058 161.836 11.2054 162.182 11.2054H163.669C164.042 11.2054 164.345 10.8836 164.345 10.4867C164.345 10.0897 164.042 9.76795 163.669 9.76795H162.182C161.582 9.76795 161.035 9.95226 160.65 10.4045C160.276 10.8437 160.154 11.4197 160.154 11.9811V27.2812C160.154 27.6782 160.457 28 160.83 28H165.831C166.205 28 166.507 27.6782 166.507 27.2812V5.71875C166.507 5.3218 166.205 5 165.831 5H160.83ZM118.939 5.71875C118.939 5.3218 119.241 5 119.614 5H128.96C129.209 5 129.437 5.14513 129.555 5.37789C129.673 5.61064 129.661 5.89343 129.525 6.11419L121.568 18.9571V26.5625H125.864V18.3858C125.864 18.2355 125.908 18.0889 125.991 17.9667L131.915 9.18802V5.71875C131.915 5.3218 132.218 5 132.591 5C132.964 5 133.267 5.3218 133.267 5.71875V9.41924C133.267 9.5696 133.223 9.71617 133.14 9.83833L127.216 18.6171V27.2812C127.216 27.6782 126.913 28 126.54 28H120.892C120.519 28 120.216 27.6782 120.216 27.2812V18.7416C120.216 18.6011 120.255 18.4636 120.328 18.3462L127.706 6.4375H120.29V8.70049H123.178C123.551 8.70049 123.854 9.02229 123.854 9.41924C123.854 9.8162 123.551 10.138 123.178 10.138H119.614C119.241 10.138 118.939 9.8162 118.939 9.41924V5.71875ZM140.013 5C139.64 5 139.338 5.3218 139.338 5.71875V9.41924C139.338 9.8162 139.64 10.138 140.013 10.138H143.577C143.95 10.138 144.253 9.8162 144.253 9.41924C144.253 9.02229 143.95 8.70049 143.577 8.70049H140.689V6.4375H148.105L140.727 18.3462C140.654 18.4636 140.615 18.6011 140.615 18.7416V27.2812C140.615 27.6782 140.918 28 141.291 28H146.939C147.312 28 147.615 27.6782 147.615 27.2812V18.6171L153.539 9.83833C153.622 9.71617 153.666 9.5696 153.666 9.41924V5.71875C153.666 5.3218 153.363 5 152.99 5C152.617 5 152.314 5.3218 152.314 5.71875V9.18802L146.39 17.9667C146.307 18.0889 146.263 18.2355 146.263 18.3858V26.5625H141.967V18.9571L149.924 6.11419C150.06 5.89343 150.072 5.61064 149.954 5.37789C149.836 5.14513 149.608 5 149.359 5H140.013ZM197.056 5.71875C197.056 5.3218 197.359 5 197.732 5H203.321C203.534 5 203.696 5.09891 203.754 5.13533C203.835 5.1865 203.91 5.24819 203.973 5.3053C204.102 5.4212 204.248 5.57621 204.403 5.75288C204.717 6.10989 205.119 6.6153 205.583 7.2255C206.513 8.44926 207.725 10.1372 209.033 12.0047C211.158 15.0363 213.551 18.5581 215.44 21.3745V6.4375H211.337V10.1847C211.337 10.5817 211.035 10.9035 210.661 10.9035C210.288 10.9035 209.985 10.5817 209.985 10.1847V5.71875C209.985 5.3218 210.288 5 210.661 5H216.116C216.489 5 216.792 5.3218 216.792 5.71875V23.6266C216.792 23.9396 216.601 24.2166 216.321 24.3115C216.04 24.4064 215.734 24.2973 215.564 24.0418C213.579 21.0599 210.559 16.5881 207.949 12.8637C206.644 11.0004 205.445 9.3306 204.532 8.12934C204.074 7.52703 203.696 7.05311 203.415 6.73391C203.297 6.599 203.205 6.5019 203.137 6.4375H198.408V26.5625H202.646V14.7092C202.646 14.3956 202.837 14.1181 203.118 14.0238C203.399 13.9294 203.706 14.0399 203.875 14.2968L211.956 26.5625H216.116C216.489 26.5625 216.792 26.8843 216.792 27.2812C216.792 27.6782 216.489 28 216.116 28H211.604C211.384 28 211.177 27.8857 211.051 27.6937L203.997 16.9877V27.2812C203.997 27.6782 203.695 28 203.321 28H197.732C197.359 28 197.056 27.6782 197.056 27.2812V5.71875Z" fill="white"/>
<defs>
<filter id="filter0_d_164_13" x="0" y="0" width="221.792" height="33" filterUnits="userSpaceOnUse" color-interpolation-filters="sRGB">
<feFlood flood-opacity="0" result="BackgroundImageFix"/>
<feColorMatrix in="SourceAlpha" type="matrix" values="0 0 0 0 0 0 0 0 0 0 0 0 0 0 0 0 0 0 127 0" result="hardAlpha"/>
<feOffset/>
<feGaussianBlur stdDeviation="2"/>
<feComposite in2="hardAlpha" operator="out"/>
<feColorMatrix type="matrix" values="0 0 0 0 0.922914 0 0 0 0 0.0364258 0 0 0 0 1 0 0 0 1 0"/>
<feBlend mode="normal" in2="BackgroundImageFix" result="effect1_dropShadow_164_13"/>
<feBlend mode="normal" in="SourceGraphic" in2="effect1_dropShadow_164_13" result="shape"/>
</filter>
</defs>
</svg>
