<svg width="112" height="112" viewBox="0 0 112 112" fill="none" xmlns="http://www.w3.org/2000/svg">
<g filter="url(#filter0_d_159_4617)">
<path d="M96.0039 77.2085L86.8395 67.8579C84.8682 65.9911 82.3816 64.7542 79.6993 64.3062C77.0169 63.8582 74.2614 64.2196 71.7868 65.3438L67.8023 61.3742C72.4976 55.124 74.642 47.3337 73.8036 39.5716C72.9653 31.8095 69.2065 24.652 63.284 19.54C57.3615 14.4279 49.7149 11.7408 41.8837 12.0197C34.0525 12.2986 26.618 15.5227 21.077 21.043C15.5359 26.5633 12.2997 33.9699 12.0198 41.7718C11.7399 49.5737 14.437 57.1915 19.5683 63.0919C24.6996 68.9922 31.884 72.7369 39.6753 73.5721C47.4665 74.4073 55.2861 72.271 61.5599 67.5933L65.5001 71.5188C64.2388 73.9871 63.7867 76.7876 64.2077 79.5255C64.6286 82.2634 65.9014 84.8006 67.8466 86.7797L77.2323 96.1303C79.7227 98.6082 83.0984 100 86.6181 100C90.1378 100 93.5135 98.6082 96.0039 96.1303C97.2689 94.898 98.274 93.4263 98.9603 91.8016C99.6465 90.1769 100 88.432 100 86.6694C100 84.9067 99.6465 83.1619 98.9603 81.5372C98.274 79.9125 97.2689 78.4408 96.0039 77.2085ZM58.4608 58.5073C55.3628 61.5859 51.4184 63.6808 47.1259 64.5272C42.8334 65.3736 38.3854 64.9336 34.3438 63.2628C30.3022 61.592 26.8483 58.7654 24.4184 55.1399C21.9885 51.5145 20.6917 47.2529 20.6917 42.8936C20.6917 38.5342 21.9885 34.2726 24.4184 30.6472C26.8483 27.0217 30.3022 24.1951 34.3438 22.5243C38.3854 20.8535 42.8334 20.4135 47.1259 21.2599C51.4184 22.1063 55.3628 24.2012 58.4608 27.2798C60.5223 29.3284 62.1578 31.762 63.2738 34.4412C64.3897 37.1205 64.9642 39.9928 64.9642 42.8936C64.9642 45.7943 64.3897 48.6666 63.2738 51.3459C62.1578 54.0251 60.5223 56.4587 58.4608 58.5073ZM89.7614 89.6907C89.3499 90.1041 88.8602 90.4322 88.3207 90.6562C87.7812 90.8801 87.2025 90.9954 86.6181 90.9954C86.0336 90.9954 85.455 90.8801 84.9155 90.6562C84.376 90.4322 83.8863 90.1041 83.4747 89.6907L74.089 80.3401C73.674 79.9301 73.3447 79.4422 73.1199 78.9048C72.8951 78.3673 72.7794 77.7908 72.7794 77.2085C72.7794 76.6263 72.8951 76.0498 73.1199 75.5123C73.3447 74.9748 73.674 74.487 74.089 74.077C74.5006 73.6635 74.9902 73.3354 75.5297 73.1115C76.0692 72.8876 76.6479 72.7723 77.2323 72.7723C77.8168 72.7723 78.3954 72.8876 78.9349 73.1115C79.4744 73.3354 79.9641 73.6635 80.3757 74.077L89.7614 83.4276C90.1764 83.8376 90.5058 84.3254 90.7305 84.8629C90.9553 85.4004 91.071 85.9769 91.071 86.5591C91.071 87.1414 90.9553 87.7179 90.7305 88.2554C90.5058 88.7928 90.1764 89.2807 89.7614 89.6907Z" fill="white"/>
</g>
<defs>
<filter id="filter0_d_159_4617" x="0.6" y="0.6" width="110.8" height="110.8" filterUnits="userSpaceOnUse" color-interpolation-filters="sRGB">
<feFlood flood-opacity="0" result="BackgroundImageFix"/>
<feColorMatrix in="SourceAlpha" type="matrix" values="0 0 0 0 0 0 0 0 0 0 0 0 0 0 0 0 0 0 127 0" result="hardAlpha"/>
<feOffset/>
<feGaussianBlur stdDeviation="5.7"/>
<feComposite in2="hardAlpha" operator="out"/>
<feColorMatrix type="matrix" values="0 0 0 0 0.922914 0 0 0 0 0.0364258 0 0 0 0 1 0 0 0 1 0"/>
<feBlend mode="normal" in2="BackgroundImageFix" result="effect1_dropShadow_159_4617"/>
<feBlend mode="normal" in="SourceGraphic" in2="effect1_dropShadow_159_4617" result="shape"/>
</filter>
</defs>
</svg>
