<svg width="15" height="15" viewBox="0 0 15 15" fill="none" xmlns="http://www.w3.org/2000/svg">
<path d="M14.4385 13.3109L11.2849 10.156C12.2304 8.92379 12.6719 7.37806 12.5197 5.83236C12.3675 4.28665 11.6331 2.85671 10.4653 1.83261C9.2976 0.808505 7.78405 0.266925 6.2317 0.31773C4.67935 0.368535 3.20445 1.00792 2.10618 2.10618C1.00792 3.20445 0.368535 4.67935 0.31773 6.2317C0.266925 7.78405 0.808505 9.2976 1.83261 10.4653C2.85671 11.6331 4.28665 12.3675 5.83236 12.5197C7.37806 12.6719 8.92379 12.2304 10.156 11.2849L13.3123 14.4418C13.3864 14.516 13.4744 14.5748 13.5712 14.6149C13.6681 14.655 13.7719 14.6756 13.8767 14.6756C13.9815 14.6756 14.0853 14.655 14.1822 14.6149C14.279 14.5748 14.367 14.516 14.4412 14.4418C14.5153 14.3677 14.5741 14.2797 14.6142 14.1829C14.6543 14.086 14.675 13.9822 14.675 13.8774C14.675 13.7726 14.6543 13.6688 14.6142 13.5719C14.5741 13.4751 14.5153 13.3871 14.4412 13.3129L14.4385 13.3109ZM1.9216 6.43723C1.9216 5.54412 2.18644 4.67107 2.68262 3.92848C3.1788 3.18589 3.88405 2.60711 4.70917 2.26533C5.53429 1.92356 6.44224 1.83413 7.31818 2.00837C8.19413 2.1826 8.99873 2.61268 9.63025 3.2442C10.2618 3.87572 10.6918 4.68033 10.8661 5.55627C11.0403 6.43222 10.9509 7.34016 10.6091 8.16528C10.2673 8.9904 9.68856 9.69565 8.94597 10.1918C8.20338 10.688 7.33033 10.9529 6.43723 10.9529C5.23999 10.9516 4.09213 10.4755 3.24556 9.6289C2.39898 8.78232 1.92283 7.63447 1.9216 6.43723Z" fill="#EB09FF"/>
</svg>
