<svg width="37" height="46" viewBox="0 0 37 46" fill="none" xmlns="http://www.w3.org/2000/svg">
<path d="M18.3468 13.4432C16.5948 13.4432 13.8828 11.4512 11.0268 11.5232C7.25876 11.5712 3.80276 13.7072 1.85876 17.0912C-2.05324 23.8832 0.850756 33.9152 4.66676 39.4352C6.53876 42.1232 8.74676 45.1472 11.6748 45.0512C14.4828 44.9312 15.5388 43.2272 18.9468 43.2272C22.3308 43.2272 23.2908 45.0512 26.2668 44.9792C29.2908 44.9312 31.2108 42.2432 33.0588 39.5312C35.1948 36.4112 36.0828 33.3872 36.1308 33.2192C36.0588 33.1952 30.2508 30.9632 30.1788 24.2432C30.1308 18.6272 34.7628 15.9392 34.9788 15.8192C32.3388 11.9552 28.2828 11.5232 26.8668 11.4272C23.1708 11.1392 20.0748 13.4432 18.3468 13.4432ZM24.5868 7.77922C26.1468 5.90722 27.1788 3.29122 26.8908 0.699219C24.6588 0.795219 21.9708 2.18722 20.3628 4.05922C18.9228 5.71522 17.6748 8.37922 18.0108 10.9232C20.4828 11.1152 23.0268 9.65122 24.5868 7.77922Z" fill="white"/>
</svg>
