<svg width="86" height="86" viewBox="0 0 86 86" fill="none" xmlns="http://www.w3.org/2000/svg">
<path fill-rule="evenodd" clip-rule="evenodd" d="M85.6041 77.8634C82.1363 63.536 72.3844 52.9713 59.6528 48.0987H59.6572C63.2564 45.1648 66.032 41.3071 67.7016 36.9182C69.3711 32.5294 69.875 27.7659 69.162 23.1129C67.4326 11.4161 57.8843 2.05614 46.3539 0.691583C30.4458 -1.19472 16.9508 11.4252 16.9508 27.2603C16.9508 35.6885 20.7841 43.1979 26.7606 48.0987C13.9832 52.9903 4.20533 63.6186 0.770508 78.0313C3.03913 80.849 5.5832 83.4357 8.36183 85.7503C8.36297 85.7395 8.36408 85.7287 8.36514 85.7178C10.1206 65.8158 25.0748 54.0164 43.2089 54.0164C61.3109 54.0164 76.2442 65.7741 78.0432 85.6123C80.8125 83.2869 83.3464 80.6903 85.6041 77.8634ZM25.7021 27.2603C25.7021 37.0976 33.5516 45.0977 43.2089 45.0977C52.8662 45.0977 60.7157 37.0976 60.7157 27.2603C60.7157 17.423 52.8662 9.423 43.2089 9.423C33.5516 9.423 25.7021 17.423 25.7021 27.2603Z" fill="white"/>
</svg>
